# xmcd
#
# Track frame offsets:
#	150
#	15723
#	32204
#	46168
#	59891
#	77534
#	97646
#	114189
#	126831
#	148252
#	161363
#	175100
#	188999
#	204706
#
# Disc length: 2922 seconds
#
# Revision: 1
# Processed by: cddbd v1.5.2PL0 Copyright (c) Steve Scherf et al.
# Submitted via: audiograbber 1.83.01
#
DISCID=b80b680e
DTITLE=Björn Heuser - Kopp voll Dräum
DYEAR=2019
DGENRE=
TTITLE0=ÖVERALL
TTITLE1=MI LEVVE LANG
TTITLE2=JOOT MET MIR
TTITLE3=JOHNNY CASH
TTITLE4=SU NOH UN DOCH SU FÄÄN
TTITLE5=MIEH ZICK
TTITLE6=BARFOOSS EM SAND
TTITLE7=JLÖCKLICHE MÄDCHE
TTITLE8=FEDDER EM WIND
TTITLE9=DO BES JET JANZ BESONDERES
TTITLE10=WÖRS DO BEI MIR
TTITLE11=WO BESS DO HÜCK NAACH
TTITLE12=ALLES WAT ICH WILL
TTITLE13=ICH WILL ZO DIR
EXTD=
EXTT0=
EXTT1=
EXTT2=
EXTT3=
EXTT4=
EXTT5=
EXTT6=
EXTT7=
EXTT8=
EXTT9=
EXTT10=
EXTT11=
EXTT12=
EXTT13=
PLAYORDER=
